<?xml version="1.0" standalone="no"?><!DOCTYPE svg PUBLIC "-//W3C//DTD SVG 1.1//EN" "http://www.w3.org/Graphics/SVG/1.1/DTD/svg11.dtd"><svg t="1741522869419" class="icon" viewBox="0 0 1280 1024" version="1.1" xmlns="http://www.w3.org/2000/svg" p-id="11882" xmlns:xlink="http://www.w3.org/1999/xlink" width="250" height="200"><path d="M830.848 1000.789333H0v-125.098666c0-166.4 327.338667-250.197333 491.349333-250.197334 68.266667 0 164.864 14.506667 254.378667 43.52a383.445333 383.445333 0 0 0-8.746667 81.578667c0 96.128 35.498667 183.808 93.866667 250.197333z m-339.498667-500.394666c135.68 0 245.632-112 245.632-250.197334S627.029333 0 491.349333 0c-135.68 0-245.674667 112-245.674666 250.197333s109.994667 250.197333 245.674666 250.197334z m551.210667-38.485334a255.146667 255.146667 0 0 1-151.552 49.493334 185.173333 185.173333 0 0 1-60.416-10.752v237.056c0 21.973333 7.850667 48.981333 22.741333 78.08 15.488 30.293333 38.656 62.805333 66.901334 94.165333a598.656 598.656 0 0 0 82.517333 75.861333c12.373333 9.301333 22.698667 16.085333 30.762667 20.906667a12.373333 12.373333 0 0 0 12.928-0.128c8.192-5.12 18.602667-12.16 31.104-21.632a666.026667 666.026667 0 0 0 84.565333-76.970667c29.312-31.744 53.205333-64.341333 69.12-94.293333 15.232-28.672 23.296-54.954667 23.296-75.989333v-237.056a185.173333 185.173333 0 0 1-60.458667 10.794666 255.104 255.104 0 0 1-151.509333-49.536z m103.68 208.085334l-100.992 169.6-106.666667-170.069334h-25.898666v-32.64h78.592l68.906666 113.664 68.906667-113.664h41.258667v33.109334h-24.149334z" fill="#C3B49D" p-id="11883"></path></svg>