<?xml version="1.0" standalone="no"?><!DOCTYPE svg PUBLIC "-//W3C//DTD SVG 1.1//EN" "http://www.w3.org/Graphics/SVG/1.1/DTD/svg11.dtd"><svg t="1741522796358" class="icon" viewBox="0 0 1024 1024" version="1.1" xmlns="http://www.w3.org/2000/svg" p-id="7431" xmlns:xlink="http://www.w3.org/1999/xlink" width="200" height="200"><path d="M345.275876 212.508444c54.357333-45.098667 54.528-189.795556-59.406223-167.537777-135.793778 26.481778-58.424889 265.358222 59.406223 167.537777z m375.04 35.271112c97.592889 81.052444 161.678222-116.935111 49.208888-138.851556-94.421333-18.403556-94.293333 101.461333-49.208888 138.851556z" fill="#59DAC5" p-id="7432"></path><path d="M969.361209 412.401778c-27.448889-37.262222-64.611556-72.334222-106.268445-93.710222-19.825778-10.140444-40.675556-17.208889-61.923555-19.953778-63.018667-8.192-129.564444 8.391111-172.757333 55.324444-25.002667 27.093333-64.568889 158.904889-99.683556 165.930667-11.377778 2.133333-104.576-199.665778-147.029333-232.675556-49.649778-38.599111-157.482667-31.388444-204.174223 0C82.449209 351.217778-20.989013 585.728 3.700764 611.015111c36.878222 37.788444 88.32-66.190222 108.231112-58.88 19.911111 7.395556 64.426667 422.656 151.054222 418.318222 25.898667-1.28 36.835556-2.56 46.392889-2.915555-37.048889-46.122667-36.778667-249.244444-47.800889-253.312-12.572444-4.608-44.8 60.629333-67.982222 36.906666-15.502222-15.843556 49.479111-163.057778 109.098666-203.207111 29.354667-19.697778 97.024-24.248889 128.184889 0 3.797333 3.000889 8.32 8.248889 13.226667 14.919111 24.661333 15.217778 51.342222 93.041778 84.593778 94.094223 8.533333 0.270222 16.682667-4.778667 24.462222-12.743111 20.679111-37.447111 46.876444-84.238222 62.321778-96.284445 31.203556-24.248889 98.844444-19.697778 128.184888 0 59.676444 40.149333 124.600889 187.363556 109.112889 203.221333-23.111111 23.722667-55.424-41.528889-67.982222-36.920888-10.979556 4.081778-10.766222 206.705778-47.672889 253.127111 14.392889-0.256 21.76 1.336889 57.315556 3.100444 96.355556 4.878222 117.475556-394.894222 121.315555-456.206222 43.022222 8.675556 71.452444 171.704889 103.480889 73.784889 18.033778-55.04-18.759111-133.262222-49.877333-175.616z" fill="#59DAC5" p-id="7433"></path><path d="M365.101653 834.261333c-51.655111-11.875556-14.392889 101.432889-28.017777 133.930667 9.159111 0.668444 21.333333 1.735111 39.082666 3.313778a22.044444 22.044444 0 0 0 8.32-0.796445c-21.333333-27.306667 18.332444-127.772444-19.384889-136.448zM681.218987 834.261333c-35.811556 8.263111-2.033778 98.844444-16.597334 131.626667 4.152889 4.167111 9.557333 6.286222 16.497778 5.674667 11.747556-1.066667 20.807111-1.848889 28.416-2.488889-14.634667-31.374222 23.779556-146.716444-28.302222-134.826667zM408.038542 500.963556c-73.969778 61.397333-122.567111-88.561778-37.319111-105.173334 71.537778-13.937778 71.438222 76.899556 37.304889 105.173334zM638.239431 500.963556c-34.076444-28.288-34.204444-119.111111 37.361778-105.173334 85.148444 16.611556 36.650667 166.570667-37.361778 105.173334z" fill="#B3F4E8" p-id="7434"></path></svg>