<?xml version="1.0" standalone="no"?><!DOCTYPE svg PUBLIC "-//W3C//DTD SVG 1.1//EN" "http://www.w3.org/Graphics/SVG/1.1/DTD/svg11.dtd"><svg t="1741522729031" class="icon" viewBox="0 0 1024 1024" version="1.1" xmlns="http://www.w3.org/2000/svg" p-id="5134" xmlns:xlink="http://www.w3.org/1999/xlink" width="200" height="200"><path d="M512 0a512 512 0 1 0 512 512A512 512 0 0 0 512 0z m0 772.7104A221.4912 221.4912 0 0 1 288.4608 553.984a215.7568 215.7568 0 0 1 61.44-150.9376L512 477.184l159.8464-75.8784a215.8592 215.8592 0 0 1 63.6928 152.6784A221.4912 221.4912 0 0 1 512 772.7104z m258.048-329.0112l0.7168 1.4336H737.28c3.7888-5.0176 10.24-56.5248 11.776-105.984v-9.216L512 437.6576 243.8144 316.416 512 195.072 780.1856 316.416l-21.504 9.216c0.8192 50.2784 7.2704 107.4176 11.3664 118.0672z" fill="#6E7DC3" p-id="5135"></path><path d="M564.8384 535.8592a117.76 117.76 0 0 1-60.0064 67.4816c22.8352-17.8176 29.184-40.96 30.72-76.288a247.1936 247.1936 0 0 1-26.2144 22.7328c-68.096 50.4832-150.1184 56.6272-183.6032 13.4144l-2.2528-3.072a188.7232 188.7232 0 0 0 377.1392-6.3488V552.96a48.9472 48.9472 0 0 1-4.8128 5.5296c-28.2624 27.8528-85.8112 17.6128-130.9696-22.6304zM460.8 642.8672a24.064 24.064 0 0 1-15.872 6.0416 23.6544 23.6544 0 0 1-15.7696-6.0416 19.5584 19.5584 0 0 1 0-29.184 23.6544 23.6544 0 0 1 15.7696-6.0416 24.064 24.064 0 0 1 15.872 6.0416 19.7632 19.7632 0 0 1 0 29.184z m135.4752-1.7408a26.9312 26.9312 0 1 1 7.8848-18.944 27.4432 27.4432 0 0 1-7.8848 18.944z" fill="#6E7DC3" p-id="5136"></path></svg>